HIERARCHY
ROOT Hips
{
    OFFSET 0.0 0.0 0.0
    CHANNELS 6 Xposition Yposition Zposition Zrotation Xrotation Yrotation
    JOINT LeftHipJoint
    {
        OFFSET 0.1 0.0 0.0
        CHANNELS 3 Zrotation Xrotation Yrotation
        JOINT LeftUpLeg
        {
            OFFSET 0.1216195672750473 0.0 0.0
            CHANNELS 3 Zrotation Xrotation Yrotation
            JOINT LeftLeg
            {
                OFFSET 0.0 0.0 -0.4275517165660858
                CHANNELS 3 Zrotation Xrotation Yrotation
                JOINT LeftFoot
                {
                    OFFSET 0.0 0.0 -0.35221046209335327
                    CHANNELS 3 Zrotation Xrotation Yrotation
                    End Site
                    {
                        OFFSET 0.0 -0.1 0.0
                    }
                }
            }
        }
    }
    JOINT LowerBack
    {
        OFFSET 0.0 0.0 0.1
        CHANNELS 3 Zrotation Xrotation Yrotation
        JOINT Spine
        {
            OFFSET 0.0 0.0 0.3192448019981384
            CHANNELS 3 Zrotation Xrotation Yrotation
            JOINT Spine1
            {
                OFFSET 0.0 0.0 0.3138635754585266
                CHANNELS 3 Zrotation Xrotation Yrotation
                JOINT LeftShoulder
                {
                    OFFSET 0.1 0.0 0.0
                    CHANNELS 3 Zrotation Xrotation Yrotation
                    JOINT LeftArm
                    {
                        OFFSET 0.19263990223407745 0.0 0.0
                        CHANNELS 3 Zrotation Xrotation Yrotation
                        JOINT LeftForeArm
                        {
                            OFFSET 0.2706131339073181 0.0 0.0
                            CHANNELS 3 Zrotation Xrotation Yrotation
                            JOINT LeftHand
                            {
                                OFFSET 0.26499998569488525 0.0 0.0
                                CHANNELS 3 Zrotation Xrotation Yrotation
                                End Site
                                {
                                    OFFSET 0.1 0.0 0.0
                                }
                            }
                        }
                    }
                }
                JOINT Neck
                {
                    OFFSET 0.0 0.0 0.1
                    CHANNELS 3 Zrotation Xrotation Yrotation
                    JOINT Neck1
                    {
                        OFFSET 0.0 0.0 0.16722744703292847
                        CHANNELS 3 Zrotation Xrotation Yrotation
                        End Site
                        {
                            OFFSET 0.0 0.0 0.16328881680965424
                        }
                    }
                }
                JOINT RightShoulder
                {
                    OFFSET -0.1 0.0 0.0
                    CHANNELS 3 Zrotation Xrotation Yrotation
                    JOINT RightArm
                    {
                        OFFSET -0.19263990223407745 0.0 0.0
                        CHANNELS 3 Zrotation Xrotation Yrotation
                        JOINT RightForeArm
                        {
                            OFFSET -0.2706131339073181 0.0 0.0
                            CHANNELS 3 Zrotation Xrotation Yrotation
                            JOINT RightHand
                            {
                                OFFSET -0.26499998569488525 0.0 0.0
                                CHANNELS 3 Zrotation Xrotation Yrotation
                                End Site
                                {
                                    OFFSET -0.1 0.0 0.0
                                }
                            }
                        }
                    }
                }
            }
        }
    }
    JOINT RightHipJoint
    {
        OFFSET -0.1 0.0 0.0
        CHANNELS 3 Zrotation Xrotation Yrotation
        JOINT RightUpLeg
        {
            OFFSET -0.1216195672750473 0.0 0.0
            CHANNELS 3 Zrotation Xrotation Yrotation
            JOINT RightLeg
            {
                OFFSET 0.0 0.0 -0.4275517165660858
                CHANNELS 3 Zrotation Xrotation Yrotation
                JOINT RightFoot
                {
                    OFFSET 0.0 0.0 -0.35221046209335327
                    CHANNELS 3 Zrotation Xrotation Yrotation
                    End Site
                    {
                        OFFSET 0.0 -0.1 0.0
                    }
                }
            }
        }
    }
}
MOTION
Frames: 6
Frame Time: 0.03333333333333333
-0.20958305895328522 -0.1623864769935608 -0.0 -141.92141534120012 81.55027821499505 -42.870558339788 9.442271710594815e-16 -6.551892161168204e-33 -7.951386703658792e-16 -2.2566877121831364 -11.013724831932805 4.77013635968516 -0.1438320641792354 2.7041926418564937 -1.238662119998712 -1.4908850069360235e-16 -5.17254644302753e-34 3.975693351829396e-16 9.442271710594815e-16 -6.551892161168204e-33 -7.951386703658792e-16 0.0702791916641392 -2.441794673956123 1.2086721555192428 -2.5711973833265347 -6.765720112627804e-07 8.067314754164664e-08 9.93923337957349e-17 -6.3611093629270335e-15 5.517382872562698e-33 -125.47023683657964 13.885004255932598 89.86398399893069 -20.311255181164533 1.853569917271418e-06 3.801555691179445e-07 -4.770832022195275e-15 -1.5902773407317584e-15 1.5902773407317584e-15 9.93923337957349e-17 -6.3611093629270335e-15 5.517382872562698e-33 178.3097320451009 9.576741612387663 -4.644830949747097 9.93923337957349e-17 -6.3611093629270335e-15 5.517382872562698e-33 142.55733855343436 8.828535577237156 -99.57827506861682 29.62618304626345 -1.5291811857040393e-06 -1.0044980585636143e-06 4.770832022195275e-15 2.648343778830095e-31 6.3611093629270335e-15 9.442271710594815e-16 -6.551892161168204e-33 -7.951386703658792e-16 2.9276992404435815 -9.465090554818708 6.375178317290511 0.1789362663752938 0.9518540792395964 -1.9453022241729643 1.5902773407317584e-15 0.0 0.0
-0.20192284882068634 -0.16346898674964905 0.0009910776279866695 -144.54475018908832 82.18217732051134 -40.197293108283894 -3.2302508483613845e-16 2.2414367919785963e-33 -7.951386703658792e-16 -2.799663165318665 -11.313562499167755 4.0337189992955 -0.1596043725925069 2.671609021923604 -0.7226334545699806 -1.1034765745125397e-32 6.361109362927032e-15 1.9878466759146975e-16 -3.2302508483613845e-16 2.2414367919785963e-33 -7.951386703658792e-16 0.06303360425043351 -2.605417296898414 1.0533450866714598 -2.022822751456538 3.90695722909676e-06 4.899160295462984e-07 2.981770013872047e-16 -1.034509288605506e-33 -3.975693351829396e-16 -123.97005200967021 13.962323419480356 89.54915302846015 -20.757474729139506 -7.094463799735192e-06 -4.357633218261573e-07 6.3611093629270335e-15 8.827812596100317e-32 1.5902773407317584e-15 2.981770013872047e-16 -1.034509288605506e-33 -3.975693351829396e-16 178.00408017589643 9.720487347747834 -4.4448449790178675 2.981770013872047e-16 -1.034509288605506e-33 -3.975693351829396e-16 142.92238325268505 9.121420695379225 -99.64794952181134 28.81455874888697 2.7327188471427297e-06 2.514298192412674e-06 -9.541664044390553e-15 -3.1805546814635176e-15 -2.648343778830095e-31 -3.2302508483613845e-16 2.2414367919785963e-33 -7.951386703658792e-16 3.384143738053564 -9.857904638860937 5.389942920584622 0.18931937152353984 1.0885142385334097 -0.9505671960665001 0.0 0.0 0.0
-0.19497007131576538 -0.16434895992279053 0.0007113832980394363 -147.77669925633404 82.49220859303604 -36.8085583009969 -3.7272125173400585e-16 0.0 0.0 -2.7645057112138445 -11.260319434212352 3.2108166755478753 -0.17820536942554116 2.6041427520969496 -0.18628707885687731 0.0 0.0 0.0 -3.7272125173400585e-16 0.0 0.0 0.04690058568952875 -2.5878151348788063 1.0088787848697536 -1.7562128367104932 2.2215074440952377e-07 -4.533852608937553e-07 -9.939233379573487e-17 -6.3611093629270335e-15 3.975693351829396e-16 -123.07591051509982 14.081280008311541 89.51305084192143 -21.035254689337563 3.282727225711822e-06 -8.081437586426789e-07 -4.770832022195275e-15 -1.5902773407317584e-15 -6.620859447075238e-32 -9.939233379573487e-17 -6.3611093629270335e-15 3.975693351829396e-16 178.8020886291529 9.671351012347852 -4.156858341960741 -9.939233379573487e-17 -6.3611093629270335e-15 3.975693351829396e-16 144.35600920314593 9.075263819849884 -99.64568764369706 27.64740679121943 -1.386494548032392e-06 5.9986228119872824e-06 -1.5902773407317588e-15 8.827812596100317e-32 -6.361109362927035e-15 -3.7272125173400585e-16 0.0 0.0 3.197349080170786 -10.048531378298886 4.281332201959149 0.2001716796458686 1.2459668492494353 -0.14528167417064092 0.0 0.0 0.0
-0.18881480395793915 -0.16436363756656647 0.0002735529560595751 -150.73679313167844 82.7018527633859 -33.70369346237282 0.0 0.0 -7.951386703658792e-16 -2.6510059701005337 -11.206942845565443 2.6123227918243948 -0.19180258261805644 2.515612207645879 0.04114003412809956 0.0 0.0 0.0 0.0 0.0 -7.951386703658792e-16 0.034533764711802674 -2.524743851766435 0.8767361490465501 -1.4499011152904502 -9.575100841393465e-07 1.578830504608782e-07 4.4139062980501586e-32 6.3611093629270335e-15 -7.951386703658792e-16 -122.24091744435788 14.158130604290301 89.40790177094159 -21.313428649331403 -6.631928732140719e-06 -1.6140339117000727e-06 -7.951386703658792e-15 3.3104297235376187e-31 -4.770832022195275e-15 4.4139062980501586e-32 6.3611093629270335e-15 -7.951386703658792e-16 179.56226725599825 9.630387785797378 -4.111409653725456 4.4139062980501586e-32 6.3611093629270335e-15 -7.951386703658792e-16 146.27020179285375 8.954726464535355 -99.85170176176801 26.403096542232074 2.1199813260376365e-06 2.2837120422070857e-06 1.5902773407317584e-15 -3.1805546814635168e-15 4.4139062980501586e-32 0.0 0.0 -7.951386703658792e-16 2.9905832450539953 -10.163355797034596 3.3318611257857356 0.20780734827132546 1.3802642134976877 0.541829627795157 7.951386703658792e-16 5.517382872562698e-33 7.951386703658792e-16
-0.1830165535211563 -0.16589464247226715 0.0004717992851510644 -153.40170431105014 83.0277729476025 -30.954822137506653 -1.9878466759146977e-16 6.361109362927033e-15 1.1034765745125397e-32 -2.786492934263872 -11.293631424888044 2.245095886338192 -0.18728505642517362 2.369430797847282 0.08064907580798863 1.987846675914698e-16 -6.3611093629270335e-15 1.1034765745125397e-32 -1.9878466759146977e-16 6.361109362927033e-15 1.1034765745125397e-32 0.028106172933909115 -2.5543019608906135 0.7870457626552158 -1.1133672220640665 1.1176482681904693e-07 -4.962479274747538e-08 2.981770013872047e-16 -6.3611093629270335e-15 -3.975693351829396e-16 -121.33403245654888 14.304481149548709 89.40971644056062 -21.628240487844813 7.099070079841059e-07 -1.2983026923567605e-07 -7.951386703658791e-16 -3.1805546814635164e-15 -2.2069531490250793e-32 2.981770013872047e-16 -6.3611093629270335e-15 -3.975693351829396e-16 -179.52911201626188 9.627482935084464 -4.14662765650169 2.981770013872047e-16 -6.3611093629270335e-15 -3.975693351829396e-16 148.5936110381783 8.832102985739068 -100.21856609159626 24.90561185685646 -2.3845097017688613e-06 1.7143029994956032e-06 1.5902773407317584e-15 0.0 0.0 -1.9878466759146977e-16 6.361109362927033e-15 1.1034765745125397e-32 3.0983362809647073 -10.349067334281852 2.689544663997085 0.1942509187367653 1.3641405780473712 1.0415003794204598 0.0 0.0 0.0
-0.1774556189775467 -0.16654816269874573 0.00021313177421689034 -155.26588209578944 83.1699617267029 -28.914286627719 -3.975693351829396e-16 0.0 0.0 -2.682156844679252 -11.305772984357773 1.777876810358663 -0.19283052075999557 2.247247182116338 0.24101353697063305 0.0 6.3611093629270335e-15 0.0 -3.975693351829396e-16 0.0 0.0 0.018219965469342056 -2.55037060270369 0.6627636001811834 -0.9578014624957756 1.8400383946345805e-06 5.428971871750333e-08 -9.93923337957349e-17 3.4483642953516864e-34 -3.975693351829396e-16 -120.87388714517272 14.483843857492785 89.49236223393501 -21.894392933738185 -1.0925522501739864e-06 5.017396486491396e-07 8.74652537402467e-15 1.5902773407317584e-15 -1.2138242319637935e-31 -9.93923337957349e-17 3.4483642953516864e-34 -3.975693351829396e-16 -178.7999822994399 9.551849247157076 -4.071258997810334 -9.93923337957349e-17 3.4483642953516864e-34 -3.975693351829396e-16 151.5379246421045 8.508434031446193 -100.6270624180455 23.45675790289509 2.6268884479178524e-06 4.2534687989342745e-06 0.0 3.1805546814635164e-15 0.0 -3.975693351829396e-16 0.0 0.0 2.915361828728918 -10.47121830760058 1.8942500647571108 0.18519267761593272 1.369870185284342 1.397278639970629 7.951386703658792e-16 -5.517382872562698e-33 -7.951386703658792e-16
